<?xml version="1.0" encoding="UTF-8" standalone="no"?>
<!DOCTYPE svg PUBLIC "-//W3C//DTD SVG 1.1//EN" "http://www.w3.org/Graphics/SVG/1.1/DTD/svg11.dtd">
<svg width="100%" height="100%" viewBox="0 0 512 512" version="1.1" xmlns="http://www.w3.org/2000/svg" xmlns:xlink="http://www.w3.org/1999/xlink" xml:space="preserve" xmlns:serif="http://www.serif.com/" style="fill-rule:evenodd;clip-rule:evenodd;stroke-linejoin:round;stroke-miterlimit:2;">
    <path d="M512,71.68L512,440.32C512,479.881 479.881,512 440.32,512L71.68,512C32.119,512 0,479.881 0,440.32L0,71.68C0,32.119 32.119,0 71.68,0L440.32,0C479.881,0 512,32.119 512,71.68Z" style="fill:rgb(254,222,202);fill-opacity:0.8;"/>
    <g id="fedecan.ca" transform="matrix(0.853968,0,0,0.853968,37.3841,37.3841)">
        <path d="M383.8,351.7C386.3,349.2 489,259.3 489,259.3L471.5,251.8C461.5,246.9 464.1,240.3 466.5,234.4C468.9,226.8 486.6,167.1 486.6,167.1C486.6,167.1 438.9,177.1 428.9,179.6C421.4,182 418.9,177.1 416.4,172.1C413.9,167.1 401.4,139.7 401.4,139.7C401.4,139.7 348.8,199.6 346.3,202C336.3,209.5 326.2,202 328.7,192C328.7,182 356.3,62.4 356.3,62.4C356.3,62.4 326.2,79.8 316.2,84.8C308.7,89.8 303.6,89.8 298.6,79.8C293.5,72.3 255.9,0 255.9,0C255.9,0 218.4,72.3 213.4,79.8C208.4,89.8 203.4,89.8 195.8,84.8C185.8,79.8 155.7,62.4 155.7,62.4C155.7,62.4 183.3,182 183.3,192C185.8,202 175.8,209.5 165.7,202C163.2,199.5 110.6,139.7 110.6,139.7C110.6,139.7 98.1,167 95.6,172C93.1,177 90.6,181.9 83.1,179.5C73,177 25.4,167 25.4,167C25.4,167 43,226.7 45.5,234.3C47.9,240.3 50.5,246.8 40.5,251.7L23,259.3C23,259.3 125.6,349.2 128.2,351.7C133.3,356.7 138.2,359.2 133.3,374.2C128.2,389.2 123.2,409.3 123.2,409.3C123.2,409.3 218.4,389.2 228.5,386.7C237.2,385.8 246.8,389.2 246.8,399.2C246.8,409.2 241,512 241,512L271,512C271,512 265.2,409.3 265.2,399.2C265.2,389.1 274.7,385.8 283.6,386.7C293.6,389.2 388.8,409.3 388.8,409.3C388.8,409.3 383.8,389.2 378.8,374.2C373.8,359.2 378.8,356.7 383.8,351.7Z" style="fill:rgb(178,52,81);fill-rule:nonzero;"/>
    </g>
</svg>
