<?xml version="1.0" encoding="UTF-8" standalone="no"?>
<svg
   id="svg8"
   width="256"
   height="256"
   enable-background="new"
   version="1.1"
   viewBox="0 0 1024 1024"
   sodipodi:docname="Lemmy.ca_whiteborder.svg"
   inkscape:version="1.2.2 (732a01da63, 2022-12-09)"
   xmlns:inkscape="http://www.inkscape.org/namespaces/inkscape"
   xmlns:sodipodi="http://sodipodi.sourceforge.net/DTD/sodipodi-0.dtd"
   xmlns="http://www.w3.org/2000/svg"
   xmlns:svg="http://www.w3.org/2000/svg">
  <defs
     id="defs14" />
  <sodipodi:namedview
     id="namedview12"
     pagecolor="#505050"
     bordercolor="#ffffff"
     borderopacity="1"
     inkscape:showpageshadow="0"
     inkscape:pageopacity="0"
     inkscape:pagecheckerboard="1"
     inkscape:deskcolor="#505050"
     showgrid="false"
     inkscape:current-layer="svg8" />
  <g
     id="lemmy"
     transform="translate(-36.38 -256.79)">
    <path
       id="white-border"
       d="m 203.42,469.53 c -0.94784,-0.002 -1.8939,0.004 -2.8379,0.0215 -4.3154,0.0778 -8.5893,0.3593 -12.812,0.8457 -33.785,3.8912 -64.216,21.864 -82.871,53.273 -18.28,30.777 -22.777,64.666 -13.461,96.068 9.3165,31.402 31.885,59.932 65.297,82.533 0.20163,0.13618 0.40678,0.26709 0.61523,0.39258 28.654,17.278 57.182,28.932 87.742,34.955 -0.74566,12.613 -0.72532,25.572 0.082,38.844 2.4399,40.109 16.607,77.037 38.096,109.67 l -77.008,31.438 c -8.306,3.2593 -12.342,12.682 -8.9697,20.943 3.3723,8.261 12.849,12.168 21.063,8.6837 l 84.697,-34.576 c 15.707,18.727 33.753,35.683 53.121,50.57 0.74013,0.56891 1.4904,1.1224 2.2344,1.6855 l -49.611,65.69102 c -5.4545,7.0474 -4.1006,17.193 3.011,22.563 7.1116,5.37 17.24,3.8965 22.526,-3.2783 l 50.387,-66.71902 c 27.686,17.53502 57.075,31.20402 86.072,40.25202 14.882,27.28 43.97,44.646 77.588,44.646 33.938,0 63.043,-18.687 77.801,-45.438 28.707,-9.2129 57.753,-22.93202 85.148,-40.40202 l 51.098,67.66002 c 5.2858,7.1748 15.414,8.6488 22.526,3.2783 7.1115,-5.3705 8.4654,-15.516 3.011,-22.563 l -50.361,-66.68602 c 0.334,-0.25394 0.6727,-0.50077 1.0059,-0.75586 19.138,-14.649 37.026,-31.286 52.703,-49.635 l 82.562,33.705 c 8.2143,3.4843 17.691,-0.42281 21.063,-8.6837 3.3722,-8.2609 -0.6636,-17.684 -8.9696,-20.943 l -74.539,-30.428 c 22.172,-32.83 37.038,-70.034 40.143,-110.46 1.0253,-13.353 1.2292,-26.425 0.6387,-39.176 30.356,-6.0541 58.716,-17.668 87.201,-34.844 0.2085,-0.12549 0.4136,-0.2564 0.6153,-0.39258 33.412,-22.601 55.98,-51.131 65.29697,-82.533 9.3166,-31.402 4.8189,-65.291 -13.46097,-96.068 -18.655,-31.41 -49.086,-49.382 -82.871,-53.273 -4.2231,-0.4864 -8.4971,-0.76791 -12.812,-0.8457 -30.208,-0.54448 -62.441,8.8243 -93.432,26.715 -22.798,13.161 -43.352,33.314 -59.438,55.305 -44.997,-25.751 -103.54,-40.251 -175.48,-41.439 -6.4522,-0.10663 -13.012,-0.10696 -19.68,0.002 -80.189,1.3093 -144.38,16.509 -192.87,43.992 -0.11914,-0.19111 -0.24287,-0.37932 -0.37109,-0.56446 -16.29,-22.764 -37.411,-43.737 -60.896,-57.295 -30.022,-17.331 -61.211,-26.665 -90.594,-26.736 z"
       style="color:#000000;line-height:normal;font-family:sans-serif;font-variant-ligatures:normal;font-variant-position:normal;font-variant-caps:normal;font-variant-numeric:normal;font-variant-alternates:normal;font-feature-settings:normal;text-indent:0;text-decoration-line:none;text-decoration-style:solid;text-decoration-color:#000000;text-transform:none;text-orientation:mixed;dominant-baseline:auto;white-space:normal;shape-padding:0;display:inline;isolation:auto;mix-blend-mode:normal;solid-color:#000000;fill:none;stroke:#ffffff;stroke-width:28;stroke-linecap:round;stroke-linejoin:round;color-rendering:auto;image-rendering:auto;shape-rendering:auto;text-rendering:auto;enable-background:accumulate" />
    <path
       id="ears-red"
       d="m753.24 561.71c15.291-21.368 35.362-41.109 56.51-53.317 66.664-38.484 137.03-33.222 170.08 22.43 33.095 55.721 14.987 117.49-47.644 159.85-31.956 19.268-62.933 30.923-97.229 35.545m-491.43-164.51c-15.291-21.368-35.362-41.109-56.51-53.317-66.664-38.484-137.03-33.222-170.08 22.43-33.095 55.721-14.987 117.49 47.644 159.85 31.956 19.268 62.933 30.923 97.229 35.545"
       style="fill:#f00;stroke-linecap:round;stroke-linejoin:round;stroke-width:28;stroke:#000" />
    <path
       id="head"
       d="m837.61 775.62c11.503-149.8-80.648-254.89-289.23-251.48-208.58 3.4057-298.29 102.64-289.23 251.48 8.6429 142.08 176.8 246.4 288.12 246.4s279.45-104.54 290.34-246.4z"
       style="fill:#fff;stroke-linecap:round;stroke-linejoin:round;stroke-width:28;stroke:#000" />
    <path
       id="eyes"
       d="m646.88 843.04c0 23.112 18.706 41.848 41.781 41.848 23.075 0 41.781-18.736 41.781-41.848 0-23.112-18.706-41.848-41.781-41.848s-41.781 18.736-41.781 41.848zm-280.56 0c0 23.325 18.878 42.234 42.166 42.234 23.288 0 42.166-18.909 42.166-42.234 0-23.325-18.878-42.234-42.166-42.234-23.288 0-42.166 18.909-42.166 42.234z"
       style="stroke-width:0" />
    <path
       id="whiskers"
       d="m376.11 967.99-54.544 72.225m399.09-72.225 54.544 72.225m-475.13-143.65-87.756 35.824m579.86-35.824 87.756 35.824"
       style="fill:none;stroke-linecap:round;stroke-width:32;stroke:#000" />
    <path
       id="nose"
       d="m548.38 911.84c-45.864 0-75.13 31.845-74.142 71.101 1.0705 42.513 32.469 71.103 74.142 71.103 41.673 0 74.051-32.996 74.142-71.103 0.0932-39.268-28.277-71.101-74.142-71.101z"
       style="fill:#fff;stroke-linecap:round;stroke-linejoin:round;stroke-width:28;stroke:#000" />
    <path
       id="maple-leaf"
       d="m556.22 892.73-3.9178-75.136a8.2711 8.2711 0 0 1 9.6641-8.5322l74.788 13.147-10.099-27.86a5.6592 5.6592 0 0 1 1.7413-6.3557l81.927-66.343-18.458-8.6193a5.6592 5.6592 0 0 1-2.9602-6.878l16.194-49.801-47.189 10.012a5.6592 5.6592 0 0 1-6.3557-3.3084l-9.1416-21.505-36.828 39.527a5.6592 5.6592 0 0 1-9.6641-4.9626l17.761-91.591-28.47 16.455a5.6592 5.6592 0 0 1-7.9228-2.3507l-28.905-56.766-28.905 56.766a5.6592 5.6592 0 0 1-7.9228 2.3507l-28.47-16.455 17.761 91.591a5.6592 5.6592 0 0 1-9.6641 4.9626l-36.828-39.527-9.1417 21.505a5.6592 5.6592 0 0 1-6.3557 3.3084l-47.189-10.012 16.194 49.801a5.6592 5.6592 0 0 1-2.9602 6.878l-18.458 8.6193 81.927 66.343a5.6592 5.6592 0 0 1 1.7413 6.3557l-10.099 27.86 74.788-13.147a8.2711 8.2711 0 0 1 9.6641 8.5322l-3.9178 75.136z"
       style="fill:#f00;stroke-width:.087064" />
  </g>
  <script
     id="bw-fido2-page-script" />
</svg>
